<svg xmlns="http://www.w3.org/2000/svg" width="960" height="560" viewBox="0 0 960 560" role="img" aria-label="Los sectores operan con dinámicas inmobiliarias distintas">
<style>
text{font-family:Arial,Helvetica,sans-serif;fill:#172033}.title{font-size:27px;font-weight:700}.sub{font-size:15px;fill:#5c667a}.axis{font-size:12px;fill:#6d7687}.label{font-size:13px;font-weight:600}.value{font-size:12px;font-weight:700}.note{font-size:12px;fill:#5c667a}.grid{stroke:#e6e9ef;stroke-width:1}.axisline{stroke:#9aa3b2;stroke-width:1}.a{fill:#2f6b8a}.b{fill:#d98743}.c{fill:#6d9b76}.d{fill:#8b78a8}.lineA{fill:none;stroke:#2f6b8a;stroke-width:4}.lineB{fill:none;stroke:#d98743;stroke-width:4}.ptA{fill:#2f6b8a}.ptB{fill:#d98743}
</style>
<rect width="960" height="560" fill="#ffffff"/>
<text x="60" y="48" class="title">Los sectores operan con dinámicas inmobiliarias distintas</text>
<text x="60" y="75" class="sub">Medianas descriptivas de Market Context de Codexway: absorción, ocupación e inquiry volume.</text>
<line x1="110" y1="455" x2="880" y2="455" class="grid"/><text x="100" y="459" text-anchor="end" class="axis">0d</text><line x1="110" y1="393.46153846153845" x2="880" y2="393.46153846153845" class="grid"/><text x="100" y="397.46153846153845" text-anchor="end" class="axis">50d</text><line x1="110" y1="331.9230769230769" x2="880" y2="331.9230769230769" class="grid"/><text x="100" y="335.9230769230769" text-anchor="end" class="axis">100d</text><line x1="110" y1="270.38461538461536" x2="880" y2="270.38461538461536" class="grid"/><text x="100" y="274.38461538461536" text-anchor="end" class="axis">150d</text><line x1="110" y1="208.84615384615384" x2="880" y2="208.84615384615384" class="grid"/><text x="100" y="212.84615384615384" text-anchor="end" class="axis">200d</text><line x1="110" y1="147.30769230769232" x2="880" y2="147.30769230769232" class="grid"/><text x="100" y="151.30769230769232" text-anchor="end" class="axis">250d</text><rect x="151.25" y="341.4" width="110" height="113.6" rx="5" class="a"/><text x="206.25" y="331.4" text-anchor="middle" class="value">92.3 d</text><text x="206.25" y="481" text-anchor="middle" class="label">Retail</text><text x="206.25" y="500" text-anchor="middle" class="axis">ocup. 77.3% · inq 278</text><rect x="343.75" y="308.7230769230769" width="110" height="146.27692307692308" rx="5" class="c"/><text x="398.75" y="298.7230769230769" text-anchor="middle" class="value">118.85 d</text><text x="398.75" y="481" text-anchor="middle" class="label">Office</text><text x="398.75" y="500" text-anchor="middle" class="axis">ocup. 83% · inq 264</text><rect x="536.25" y="246.01538461538462" width="110" height="208.98461538461538" rx="5" class="b"/><text x="591.25" y="236.01538461538462" text-anchor="middle" class="value">169.8 d</text><text x="591.25" y="481" text-anchor="middle" class="label">Industrial</text><text x="591.25" y="500" text-anchor="middle" class="axis">ocup. 87.7% · inq 238</text><rect x="728.75" y="163.43076923076922" width="110" height="291.5692307692308" rx="5" class="d"/><text x="783.75" y="153.43076923076922" text-anchor="middle" class="value">236.9 d</text><text x="783.75" y="481" text-anchor="middle" class="label">Land</text><text x="783.75" y="500" text-anchor="middle" class="axis">ocup. 59.7% · inq 256</text><text x="110" y="530" class="note">Market Context es EDA_ONLY: el campo month no demuestra cuándo el dato quedó publicado/disponible.</text>
</svg>