<svg xmlns="http://www.w3.org/2000/svg" width="960" height="560" viewBox="0 0 960 560" role="img" aria-label="Clustering: conservar el conocimiento, no idolatrar el ID"><style>text{font-family:Arial,Helvetica,sans-serif;fill:#172033}.title{font-size:27px;font-weight:700}.sub{font-size:15px;fill:#5c667a}.axis{font-size:12px;fill:#6d7687}.label{font-size:13px;font-weight:600}.value{font-size:12px;font-weight:700}.big{font-size:30px;font-weight:800}.note{font-size:12px;fill:#5c667a}.grid{stroke:#e6e9ef;stroke-width:1}.a{fill:#2f6b8a}.b{fill:#d98743}.c{fill:#6d9b76}.d{fill:#8b78a8}.soft{fill:#f1f3f6}.card{fill:#fbfcfe;stroke:#e1e6ed;stroke-width:1}</style><rect width="960" height="560" fill="#fff"/><text x="60" y="48" class="title">Clustering: conservar el conocimiento, no idolatrar el ID</text><text x="60" y="75" class="sub">Síntesis de qué conceptos sobrevivieron a la investigación y cuáles no.</text><text x="75" y="120" class="axis">Experimento</text><text x="300" y="120" class="axis">Qué aprendió</text><text x="690" y="120" class="axis">Rol final</text>
<rect x="65" y="145" width="830" height="50" rx="9" class="card"/><rect x="65" y="145" width="8" height="50" rx="4" class="c"/><text x="85" y="176" class="label">Search Need</text><text x="300" y="176" class="axis">renta / venta / both + área</text><text x="690" y="176" class="value">Concepto útil</text>
<rect x="65" y="211" width="830" height="50" rx="9" class="card"/><rect x="65" y="211" width="8" height="50" rx="4" class="c"/><text x="85" y="242" class="label">Physical vs Location</text><text x="300" y="242" class="axis">qué es / dónde está</text><text x="690" y="242" class="value">Separar familias</text>
<rect x="65" y="277" width="830" height="50" rx="9" class="card"/><rect x="65" y="277" width="8" height="50" rx="4" class="a"/><text x="85" y="308" class="label">Broker Service</text><text x="300" y="308" class="axis">faceta de servicio</text><text x="690" y="308" class="value">Auxiliar</text>
<rect x="65" y="343" width="830" height="50" rx="9" class="card"/><rect x="65" y="343" width="8" height="50" rx="4" class="b"/><text x="85" y="374" class="label">Dynamic Need</text><text x="300" y="374" class="axis">refinamiento T0→T1</text><text x="690" y="374" class="value">Concepto sí · ID no</text>
<rect x="65" y="409" width="830" height="50" rx="9" class="card"/><rect x="65" y="409" width="8" height="50" rx="4" class="d"/><text x="85" y="440" class="label">Inquiry Intent</text><text x="300" y="440" class="axis">aprendió weekday</text><text x="690" y="440" class="value">No promover</text>
<text x="65" y="510" class="note">Estabilidad matemática no sustituye interpretación y utilidad de negocio.</text></svg>