<svg xmlns="http://www.w3.org/2000/svg" width="960" height="560" viewBox="0 0 960 560" role="img" aria-label="QA semántica del inventario: señales reales, no labels humanos"><style>text{font-family:Arial,Helvetica,sans-serif;fill:#172033}.title{font-size:27px;font-weight:700}.sub{font-size:15px;fill:#5c667a}.axis{font-size:12px;fill:#6d7687}.label{font-size:13px;font-weight:600}.value{font-size:12px;font-weight:700}.big{font-size:30px;font-weight:800}.note{font-size:12px;fill:#5c667a}.grid{stroke:#e6e9ef;stroke-width:1}.a{fill:#2f6b8a}.b{fill:#d98743}.c{fill:#6d9b76}.d{fill:#8b78a8}.soft{fill:#f1f3f6}.card{fill:#fbfcfe;stroke:#e1e6ed;stroke-width:1}</style><rect width="960" height="560" fill="#fff"/><text x="60" y="48" class="title">QA semántica del inventario: señales reales, no labels humanos</text><text x="60" y="75" class="sub">Flags sobre 3,000 spots; pueden solaparse entre sí.</text><text x="70" y="138" class="axis">≥1 señal semántica</text><rect x="315" y="120" width="550" height="25" rx="5" class="soft"/><rect x="315" y="120" width="543.9" height="25" rx="5" class="a"/><text x="866.8888888888889" y="138" class="value">890</text><text x="70" y="186" class="axis">Cualquier ambigüedad</text><rect x="315" y="168" width="550" height="25" rx="5" class="soft"/><rect x="315" y="168" width="262.2" height="25" rx="5" class="d"/><text x="585.1666666666667" y="186" class="value">429</text><text x="70" y="234" class="axis">Security ambiguity</text><rect x="315" y="216" width="550" height="25" rx="5" class="soft"/><rect x="315" y="216" width="199.8" height="25" rx="5" class="b"/><text x="522.8333333333334" y="234" class="value">327</text><text x="70" y="282" class="axis">Direct conflict</text><rect x="315" y="264" width="550" height="25" rx="5" class="soft"/><rect x="315" y="264" width="196.8" height="25" rx="5" class="b"/><text x="519.7777777777778" y="282" class="value">322</text><text x="70" y="330" class="axis">Land × building-copy</text><rect x="315" y="312" width="550" height="25" rx="5" class="soft"/><rect x="315" y="312" width="140.6" height="25" rx="5" class="c"/><text x="463.55555555555554" y="330" class="value">230</text><text x="70" y="378" class="axis">Retail adaptive-use</text><rect x="315" y="360" width="550" height="25" rx="5" class="soft"/><rect x="315" y="360" width="66.6" height="25" rx="5" class="c"/><text x="389.6111111111111" y="378" class="value">109</text><text x="70" y="444" class="note">Son señales para Catalog/Inventory QA. La ablation posterior no mejoró Lead Quality.</text></svg>