<svg xmlns="http://www.w3.org/2000/svg" width="900" height="420" viewBox="0 0 900 420"><rect width="100%" height="100%" fill="white"/><text x="450" y="26" text-anchor="middle" font-size="18" font-family="sans-serif">Median PIT candidate depth — DEVELOPMENT</text><line x1="55" y1="365" x2="845" y2="365" stroke="black"/><line x1="55" y1="55" x2="55" y2="365" stroke="black"/><polyline points="55,365 107.66666666666666,355.6060606060606 160.33333333333331,346.2121212121212 213,308.6363636363636 265.66666666666663,308.6363636363636 318.3333333333333,299.24242424242425 371,252.27272727272725 423.6666666666667,224.0909090909091 476.3333333333333,195.9090909090909 529,195.9090909090909 581.6666666666666,177.12121212121212 634.3333333333334,130.15151515151516 687,148.93939393939394 739.6666666666666,87.87878787878788 792.3333333333334,101.969696969697 845,55" fill="none" stroke="black" stroke-width="2"/><g font-family="sans-serif"><text x="55" y="400" text-anchor="middle" font-size="11">2025-01</text><text x="107.66666666666666" y="400" text-anchor="middle" font-size="11">2025-02</text><text x="160.33333333333331" y="400" text-anchor="middle" font-size="11">2025-03</text><text x="213" y="400" text-anchor="middle" font-size="11">2025-04</text><text x="265.66666666666663" y="400" text-anchor="middle" font-size="11">2025-05</text><text x="318.3333333333333" y="400" text-anchor="middle" font-size="11">2025-06</text><text x="371" y="400" text-anchor="middle" font-size="11">2025-07</text><text x="423.6666666666667" y="400" text-anchor="middle" font-size="11">2025-08</text><text x="476.3333333333333" y="400" text-anchor="middle" font-size="11">2025-09</text><text x="529" y="400" text-anchor="middle" font-size="11">2025-10</text><text x="581.6666666666666" y="400" text-anchor="middle" font-size="11">2025-11</text><text x="634.3333333333334" y="400" text-anchor="middle" font-size="11">2025-12</text><text x="687" y="400" text-anchor="middle" font-size="11">2026-01</text><text x="739.6666666666666" y="400" text-anchor="middle" font-size="11">2026-02</text><text x="792.3333333333334" y="400" text-anchor="middle" font-size="11">2026-03</text><text x="845" y="400" text-anchor="middle" font-size="11">2026-04</text></g><text x="15" y="210" font-size="12" font-family="sans-serif" transform="rotate(-90 15 210)">candidate count</text><text x="55" y="45" font-size="11" font-family="sans-serif">49.000</text><text x="55" y="380" font-size="11" font-family="sans-serif">16.000</text></svg>