<svg xmlns="http://www.w3.org/2000/svg" width="1200" height="620" viewBox="0 0 1200 620"><rect width="100%" height="100%" fill="white"/><style>text{font-family:Arial,sans-serif;fill:#172033}.t{font-size:25px;font-weight:700}.u{font-size:14px;fill:#5b6577}.a{font-size:12px}.h{font-size:16px;font-weight:700}.g{stroke:#e5e7eb}</style><text class="t" x="80" y="38">Matching v4 profile cluster sizes</text><text class="u" x="80" y="64">Share de observaciones por cluster seleccionado · valores exactos de assignments versionados</text><text class="h" x="80" y="93">behavioral persona · n=5,000</text><line class="g" x1="80" y1="355" x2="580" y2="355"/><text class="a" x="72" y="359" text-anchor="end">0%</text><line class="g" x1="80" y1="292.5" x2="580" y2="292.5"/><text class="a" x="72" y="296.5" text-anchor="end">17%</text><line class="g" x1="80" y1="230" x2="580" y2="230"/><text class="a" x="72" y="234" text-anchor="end">34%</text><line class="g" x1="80" y1="167.50000000000003" x2="580" y2="167.50000000000003"/><text class="a" x="72" y="171.50000000000003" text-anchor="end">51%</text><line class="g" x1="80" y1="105" x2="580" y2="105"/><text class="a" x="72" y="109" text-anchor="end">68%</text><rect x="84" y="137.60869565217388" width="151" height="217.39130434782612" rx="3" fill="#2563eb" opacity="0.78"/><text class="a" x="159.5" y="373" text-anchor="middle">BP1</text><text class="a" x="159.5" y="131.60869565217388" text-anchor="middle">59.1%</text><rect x="244" y="259.96032038163105" width="151" height="95.03967961836894" rx="3" fill="#2563eb" opacity="0.78"/><text class="a" x="319.5" y="373" text-anchor="middle">BP2</text><text class="a" x="319.5" y="253.96032038163105" text-anchor="middle">25.8%</text><rect x="404" y="299.3454703396693" width="151" height="55.654529660330695" rx="3" fill="#2563eb" opacity="0.78"/><text class="a" x="479.5" y="373" text-anchor="middle">BP3</text><text class="a" x="479.5" y="293.3454703396693" text-anchor="middle">15.1%</text><text class="h" x="660" y="93">dynamic need · n=22,576</text><line class="g" x1="660" y1="355" x2="1160" y2="355"/><text class="a" x="652" y="359" text-anchor="end">0%</text><line class="g" x1="660" y1="292.5" x2="1160" y2="292.5"/><text class="a" x="652" y="296.5" text-anchor="end">19%</text><line class="g" x1="660" y1="230" x2="1160" y2="230"/><text class="a" x="652" y="234" text-anchor="end">37%</text><line class="g" x1="660" y1="167.49999999999997" x2="1160" y2="167.49999999999997"/><text class="a" x="652" y="171.49999999999997" text-anchor="end">56%</text><line class="g" x1="660" y1="105" x2="1160" y2="105"/><text class="a" x="652" y="109" text-anchor="end">75%</text><rect x="664" y="137.60869565217388" width="87" height="217.39130434782612" rx="3" fill="#2563eb" opacity="0.78"/><text class="a" x="707.5" y="373" text-anchor="middle">DN1</text><text class="a" x="707.5" y="131.60869565217388" text-anchor="middle">65.1%</text><rect x="760" y="312.8120884421992" width="87" height="42.187911557800845" rx="3" fill="#2563eb" opacity="0.78"/><text class="a" x="803.5" y="373" text-anchor="middle">DN2</text><text class="a" x="803.5" y="306.8120884421992" text-anchor="middle">12.6%</text><rect x="856" y="315.6088317899453" width="87" height="39.391168210054666" rx="3" fill="#2563eb" opacity="0.78"/><text class="a" x="899.5" y="373" text-anchor="middle">DN3</text><text class="a" x="899.5" y="309.6088317899453" text-anchor="middle">11.8%</text><rect x="952" y="336.96174528622964" width="87" height="18.038254713770336" rx="3" fill="#2563eb" opacity="0.78"/><text class="a" x="995.5" y="373" text-anchor="middle">DN4</text><text class="a" x="995.5" y="330.96174528622964" text-anchor="middle">5.4%</text><rect x="1048" y="337.93838582036324" width="87" height="17.06161417963675" rx="3" fill="#2563eb" opacity="0.78"/><text class="a" x="1091.5" y="373" text-anchor="middle">DN5</text><text class="a" x="1091.5" y="331.93838582036324" text-anchor="middle">5.1%</text><text class="h" x="80" y="423">broker service balanced · n=300</text><line class="g" x1="80" y1="685" x2="580" y2="685"/><text class="a" x="72" y="689" text-anchor="end">0%</text><line class="g" x1="80" y1="622.5" x2="580" y2="622.5"/><text class="a" x="72" y="626.5" text-anchor="end">17%</text><line class="g" x1="80" y1="560" x2="580" y2="560"/><text class="a" x="72" y="564" text-anchor="end">33%</text><line class="g" x1="80" y1="497.5" x2="580" y2="497.5"/><text class="a" x="72" y="501.5" text-anchor="end">50%</text><line class="g" x1="80" y1="435" x2="580" y2="435"/><text class="a" x="72" y="439" text-anchor="end">66%</text><rect x="84" y="467.6086956521739" width="151" height="217.39130434782612" rx="3" fill="#2563eb" opacity="0.78"/><text class="a" x="159.5" y="703" text-anchor="middle">BSV1</text><text class="a" x="159.5" y="461.6086956521739" text-anchor="middle">57.7%</text><rect x="244" y="595.7816034179442" width="151" height="89.21839658205582" rx="3" fill="#2563eb" opacity="0.78"/><text class="a" x="319.5" y="703" text-anchor="middle">BSV2</text><text class="a" x="319.5" y="589.7816034179442" text-anchor="middle">23.7%</text><rect x="404" y="614.6305604423221" width="151" height="70.36943955767782" rx="3" fill="#2563eb" opacity="0.78"/><text class="a" x="479.5" y="703" text-anchor="middle">BSV3</text><text class="a" x="479.5" y="608.6305604423221" text-anchor="middle">18.7%</text></svg>