<svg xmlns="http://www.w3.org/2000/svg" width="960" height="520" viewBox="0 0 960 520">
<rect width="960" height="520" fill="#ffffff"/>
<text x="55" y="48" font-family="Arial" font-size="28" font-weight="700" fill="#18222c">Frescura de Availability: el umbral cambia la incertidumbre</text>
<text x="55" y="78" font-family="Arial" font-size="15" fill="#657585">Porcentaje de candidatos con snapshot fresco vs desconocido/stale</text>
<line x1="90" y1="430" x2="900" y2="430" stroke="#cbd5df"/>
<line x1="90" y1="130" x2="90" y2="430" stroke="#cbd5df"/>
<g font-family="Arial" font-size="13" fill="#657585">
<text x="55" y="435">0%</text><text x="45" y="360">25%</text><text x="45" y="285">50%</text><text x="45" y="210">75%</text><text x="38" y="135">100%</text>
</g>
<g stroke="#eef2f6"><line x1="90" y1="355" x2="900" y2="355"/><line x1="90" y1="280" x2="900" y2="280"/><line x1="90" y1="205" x2="900" y2="205"/><line x1="90" y1="130" x2="900" y2="130"/></g>
<g>
<rect x="175" y="372.5" width="70" height="57.5" rx="4" fill="#1a5f8a"/><rect x="255" y="187.5" width="70" height="242.5" rx="4" fill="#a8bac8"/>
<rect x="435" y="258.7" width="70" height="171.3" rx="4" fill="#1a5f8a"/><rect x="515" y="301.3" width="70" height="128.7" rx="4" fill="#a8bac8"/>
<rect x="695" y="171.9" width="70" height="258.1" rx="4" fill="#1a5f8a"/><rect x="775" y="388.1" width="70" height="41.9" rx="4" fill="#a8bac8"/>
</g>
<g font-family="Arial" font-size="14" font-weight="700" fill="#18222c">
<text x="186" y="363">19.2%</text><text x="266" y="178">80.8%</text>
<text x="446" y="249">57.1%</text><text x="526" y="292">42.9%</text>
<text x="706" y="162">86.0%</text><text x="786" y="379">14.0%</text>
</g>
<g font-family="Arial" font-size="16" font-weight="700" fill="#18222c"><text x="214" y="463">7 días</text><text x="471" y="463">30 días</text><text x="731" y="463">90 días</text></g>
<rect x="610" y="88" width="16" height="16" fill="#1a5f8a"/><text x="633" y="101" font-family="Arial" font-size="13" fill="#334554">Snapshot fresco</text>
<rect x="760" y="88" width="16" height="16" fill="#a8bac8"/><text x="783" y="101" font-family="Arial" font-size="13" fill="#334554">Unknown / stale</text>
</svg>