<svg xmlns="http://www.w3.org/2000/svg" width="1000" height="560" viewBox="0 0 1000 560"><rect width="100%" height="100%" fill="#fff"/><style>text{font-family:Arial,sans-serif;fill:#111827}.title{font-size:24px;font-weight:700}.sub{font-size:14px;fill:#6B7280}.lab{font-size:13px}.val{font-size:12px;font-weight:600}.grid{stroke:#E5E7EB;stroke-width:1}.bar{fill:#2563EB}</style><text x="40" y="38" class="title">30-day scheduled-visit proxy by candidate head</text><text x="40" y="67" class="sub">Head-specific scoring anchors with right-censoring; descriptive rates, not model metrics</text><line x1="80" y1="440" x2="920" y2="440" class="grid"/><line x1="80" y1="357.5" x2="920" y2="357.5" class="grid"/><line x1="80" y1="275" x2="920" y2="275" class="grid"/><line x1="80" y1="192.5" x2="920" y2="192.5" class="grid"/><line x1="80" y1="110" x2="920" y2="110" class="grid"/><rect x="122" y="172.3955036230368" width="126" height="267.6044963769632" rx="3" class="bar"/><text x="185" y="165.3955036230368" text-anchor="middle" class="val">41.9%</text><text x="185" y="465" text-anchor="end" transform="rotate(-28 185 465)" class="lab">T0</text><rect x="332" y="155.5172413793103" width="126" height="284.4827586206897" rx="3" class="bar"/><text x="395" y="148.5172413793103" text-anchor="middle" class="val">44.5%</text><text x="395" y="465" text-anchor="end" transform="rotate(-28 395 465)" class="lab">T1</text><rect x="542" y="183.0107227017304" width="126" height="256.9892772982696" rx="3" class="bar"/><text x="605" y="176.0107227017304" text-anchor="middle" class="val">40.2%</text><text x="605" y="465" text-anchor="end" transform="rotate(-28 605 465)" class="lab">T2</text><rect x="752" y="219.01043917992476" width="126" height="220.98956082007524" rx="3" class="bar"/><text x="815" y="212.01043917992476" text-anchor="middle" class="val">34.6%</text><text x="815" y="465" text-anchor="end" transform="rotate(-28 815 465)" class="lab">T3</text></svg>